<?xml version="1.0" encoding="UTF-8" standalone="no"?>
<!-- Created with Inkscape (http://www.inkscape.org/) -->

<svg
   width="1920"
   height="1080"
   viewBox="0 0 1920 1080"
   version="1.1"
   id="svg5"
   xml:space="preserve"
   inkscape:version="1.3 (0e150ed, 2023-07-21)"
   sodipodi:docname="Arch1.svg"
   inkscape:export-filename="../Created/Venom3.png"
   inkscape:export-xdpi="96"
   inkscape:export-ydpi="96"
   xmlns:inkscape="http://www.inkscape.org/namespaces/inkscape"
   xmlns:sodipodi="http://sodipodi.sourceforge.net/DTD/sodipodi-0.dtd"
   xmlns="http://www.w3.org/2000/svg"
   xmlns:svg="http://www.w3.org/2000/svg"><sodipodi:namedview
     id="namedview7"
     pagecolor="#ffffff"
     bordercolor="#000000"
     borderopacity="0.25"
     inkscape:showpageshadow="2"
     inkscape:pageopacity="0.0"
     inkscape:pagecheckerboard="0"
     inkscape:deskcolor="#d1d1d1"
     inkscape:document-units="px"
     showgrid="false"
     inkscape:zoom="1"
     inkscape:cx="944"
     inkscape:cy="558"
     inkscape:window-width="1908"
     inkscape:window-height="1068"
     inkscape:window-x="0"
     inkscape:window-y="0"
     inkscape:window-maximized="1"
     inkscape:current-layer="layer1"
     showguides="true" /><defs
     id="defs2"><rect
       x="916.28906"
       y="645.51953"
       width="298.36328"
       height="216.52735"
       id="rect2" /></defs><g
     inkscape:label="Layer 1"
     inkscape:groupmode="layer"
     id="layer1"><rect
       style="fill:#353e43;fill-opacity:1"
       id="rect2603"
       width="1920"
       height="1080"
       x="0"
       y="0" /><path
       style="fill:#59c99c;fill-opacity:1;stroke-width:0.892201"
       d="m 597.51163,314.73877 1.82906,-0.4842 8.53793,-7.44447 8.53793,-7.44454 14.539,-14.4923 14.53899,-14.4923 27.44327,0.0106 27.44326,0.0107 41.38373,41.38375 41.38372,41.38371 6.65132,-0.18541 6.65122,-0.18545 38.04399,37.62552 38.04398,37.62561 1.57678,-4.5e-4 1.57678,-3.8e-4 2.3516,2.35155 2.3516,2.35155 -0.36451,3.05084 -0.3642,3.05088 -2.00494,1.20422 -2.00464,1.20429 -2.21796,0.11498 -2.21776,0.11506 -2.10196,-2.95218 -2.10176,-2.95211 -2.61695,-3.69195 -2.61695,-3.69193 -34.68975,-34.78199 -34.68986,-34.78191 -6.46555,0.47418 -6.46555,0.47417 -41.45034,-41.45033 -41.45034,-41.45037 -23.65792,0.0122 -23.65791,0.0123 -19.83951,19.89379 -19.83899,19.89449 -2.19674,3.48114 -2.19684,3.4812 -1.33327,2.01157 -1.33346,2.01157 -2.64848,-6e-5 -2.64836,7e-5 -2.20807,-2.20809 -2.20806,-2.20809 v -2.52352 -2.52353 l 1.43834,-1.40056 1.43845,-1.40055 z m -90.41793,113.36651 2.8319,0.0885 0.66403,0.66394 0.66382,0.66387 15.78596,0.46963 15.78605,0.46956 59.52821,0.0901 59.52832,0.09 22.40891,-22.38867 22.40892,-22.38875 9.98056,-0.42893 9.98055,-0.429 14.62051,14.62051 14.6204,14.62042 22.69875,-0.0132 22.69844,-0.0132 13.60023,13.54087 13.60023,13.54094 8.58996,7.56869 8.59016,7.5687 h 1.44273 l 1.44293,6e-5 1.7951,1.79511 1.7952,1.79518 v 3.097 l 10e-5,3.09706 -1.24216,1.24208 -1.24196,1.24202 -3.67823,0.31665 -3.67824,0.31669 -2.22153,-2.93386 -2.22163,-2.93372 -6.32946,-7.54989 -6.32956,-7.54989 -13.21828,-13.29155 -13.21838,-13.29148 -23.22893,0.0126 -23.22893,0.0128 -14.45983,-14.0435 -14.45983,-14.04343 -2.44147,-0.71289 -2.44158,-0.7129 -3.99102,-0.10965 -3.99112,-0.10965 -22.69844,22.69844 -22.69844,22.69843 -67.40048,0.19843 -67.40059,0.19838 -9.05474,0.55114 -9.05486,0.551 -1.03282,1.03277 -1.03262,1.03268 h -2.5236 -2.5235 l -2.20806,-2.2081 -2.20817,-2.20808 v -2.52353 -2.52353 l 1.78276,-1.78268 1.78265,-1.78268 z m 206.69999,-196.56998 3.23803,1e-5 1.1781,1.17811 1.17809,1.17817 7.7876,0.53234 7.78749,0.53233 6.26263,-0.36153 6.26264,-0.36162 31.33512,31.33509 31.33513,31.33509 -0.0429,20.848 -0.0428,20.84794 38.10785,37.72043 38.10795,37.72043 1.82804,0.16943 1.82805,0.16945 2.14879,2.54562 2.14869,2.54558 -0.42847,2.9106 -0.42837,2.91068 -2.34926,1.17457 -2.34925,1.17463 -2.98421,-0.43296 -2.98441,-0.43295 -1.13729,-2.93641 -1.13729,-2.93648 -38.31076,-38.73286 -38.31066,-38.73285 0.0133,-21.37399 0.0143,-21.37394 -29.72621,-29.72621 -29.72621,-29.72622 -11.1914,0.20511 -11.19129,0.20514 -3.31393,1.37704 -3.31414,1.37699 -2.08533,0.12278 -2.08524,0.12277 -1.72501,-1.72495 -1.72501,-1.72496 -0.22566,-2.43382 -0.22576,-2.43382 1.62064,-2.39642 1.62085,-2.39636 z m 114.86801,-99.2734 2.10962,0.15876 1.12861,0.31429 1.12852,0.31431 1.68379,3.81302 1.6839,3.81304 38.88389,39.34552 38.88379,39.34551 0.051,10.98935 0.051,10.98935 -7.1308,7.13084 -7.13081,7.13083 -1.15718,2.903 -1.15718,2.90299 0.10099,4.92869 0.101,4.9287 1.87997,3.01572 1.87998,3.01571 7.24425,7.27451 7.24435,7.27451 -0.0571,34.74742 -0.0571,34.74742 5.98831,5.4396 5.98842,5.43959 2.76956,0.57693 2.76967,0.57687 1.46293,2.28648 1.46293,2.28642 -0.12783,1.37533 -0.12783,1.37533 -1.22196,2.04101 -1.22207,2.04095 -3.66915,0.31596 -3.66916,0.3159 -1.35387,-1.37291 -1.35387,-1.37293 -1.61442,-3.43266 -1.61443,-3.43266 -5.33907,-5.39449 -5.33908,-5.39448 0.0102,-34.68993 0.0102,-34.68992 -9.16452,-9.16452 -9.16452,-9.16457 0.0245,-11.67068 0.0245,-11.67072 7.43236,-7.43233 7.43227,-7.43234 0.80787,-2.59932 0.80788,-2.59933 -0.0755,-5.5614 -0.0755,-5.56133 -38.35707,-37.80649 -38.35687,-37.80642 -4.19648,-2.11247 -4.19638,-2.11245 -0.41623,-2.73815 -0.41634,-2.73816 2.30529,-2.68098 2.30518,-2.68097 z m -147.87499,181.77149 10.52013,0.28863 31.98303,31.98301 31.98293,31.98294 19.4344,-0.0152 19.4345,-0.0152 32.25909,31.83598 32.2591,31.83592 1.57677,-3.8e-4 1.57678,-4.4e-4 2.3515,2.35155 2.3516,2.35155 -0.3644,3.05084 -0.36441,3.05089 -1.97934,1.22964 -1.97944,1.22964 -3.13081,-0.17837 -3.13081,-0.17838 -1.31347,-1.95403 -1.31357,-1.95404 -1.8557,-3.19129 -1.8558,-3.19127 -29.95941,-29.98962 -29.95942,-29.98961 -19.54223,0.0153 -19.54193,0.0152 -31.87816,-31.87802 -31.87795,-31.87797 -6.18919,-0.41347 -6.18908,-0.41342 -23.84818,23.84816 -23.84827,23.84822 0.25545,8.76301 0.25555,8.76308 1.51894,3.92901 1.51924,3.92895 -0.41419,2.35048 -0.41409,2.35046 -1.32684,1.32687 -1.32694,1.32688 -2.83179,-0.0884 -2.8319,-0.0885 -1.73572,-1.73574 -1.73583,-1.73574 -0.55721,-1.84047 -0.55722,-1.84048 1.83774,-3.19214 1.83774,-3.19219 0.26014,-11.56622 0.26014,-11.56621 24.92915,-24.92917 24.92926,-24.92924 z m 128.41111,-129.81424 3.09704,4e-5 0.58252,0.5825 0.58252,0.58255 1.35968,3.31111 1.35949,3.31112 5.78254,6.5328 5.78255,6.5328 2.88464,1.97328 2.88464,1.97329 8.86683,0.13662 8.86673,0.13664 13.72082,13.7208 13.72071,13.72073 0.17598,7.43109 0.17598,7.43116 -0.82226,2.58481 -0.82246,2.58481 -3.14468,3.14467 -3.14469,3.14467 -1.10974,2.44215 -1.10995,2.44215 -0.0571,6.56742 -0.0571,6.56748 13.275,13.27501 13.2749,13.27496 -0.0602,30.33282 -0.0602,30.33283 9.4417,8.90335 9.4418,8.90334 2.86353,0.59649 2.86362,0.59651 1.44916,2.61184 1.44915,2.61185 -0.93407,2.66288 -0.93427,2.6628 -3.10918,1.10141 -3.10939,1.10133 -2.13481,-1.27827 -2.13492,-1.27821 -1.12178,-2.75645 -1.12188,-2.75637 -9.55821,-10.13727 -9.5582,-10.1372 0.0102,-30.14416 0.0102,-30.14423 -13.5836,-13.58364 -13.58371,-13.58371 0.0847,-9.69369 0.0847,-9.69369 0.65118,-1.99387 0.65107,-1.9938 4.3137,-5.5365 4.3136,-5.53651 v -3.80903 -3.80912 l -2.87291,-3.82585 -2.87291,-3.82592 -9.34386,-9.43597 -9.34387,-9.43605 -8.86163,-0.22763 -8.86173,-0.22768 -2.87597,-2.06065 -2.87607,-2.06065 -5.38438,-5.34048 -5.38457,-5.34048 -3.20385,-1.84319 -3.20396,-1.84318 -2.59858,-1.97893 -2.59869,-1.97892 0.43776,-2.48442 0.43775,-2.4844 1.78092,-1.78095 1.78102,-1.78095 z M 506.37437,487.04256 h 3.09725 l 0.58242,0.58249 0.58262,0.58255 1.40926,3.47629 1.40958,3.47623 11.87981,12.51406 11.87981,12.51398 8.69402,0.0335 8.69391,0.0335 13.26837,-13.26826 13.26817,-13.26821 53.61947,0.005 53.61947,0.005 28.71369,-28.71377 28.71389,-28.71384 24.84417,0.0756 24.84427,0.0757 16.90284,16.2228 16.90294,16.22282 2.9788,0.99591 2.9788,0.99598 1.50904,1.50893 1.50884,1.50894 v 3.09713 3.097 l -1.24206,1.24202 -1.24196,1.24207 -3.7017,0.31873 -3.70169,0.31872 -2.19246,-2.94149 -2.19235,-2.9416 -2.55115,-3.75773 -2.55104,-3.75772 -13.53311,-13.60875 -13.5331,-13.60883 -21.13431,0.0138 -21.13441,0.0138 -28.3856,28.38571 -28.3857,28.38565 -53.61948,-0.005 -53.61947,-0.005 -13.5786,13.57859 -13.57851,13.57854 -12.30175,-0.0231 -12.30155,-0.0232 -11.67517,-11.64488 -11.67516,-11.64488 -3.20386,-1.84319 -3.20385,-1.84319 -2.59879,-1.97889 -2.59848,-1.97894 0.43765,-2.48442 0.43766,-2.4844 1.78091,-1.78093 1.78102,-1.78098 z m -50.9458,75.81202 2.1947,-1.0662 4.66739,1.7618 4.66729,1.76174 20.88692,0.24093 20.88682,0.24101 13.39303,13.39299 13.39304,13.39306 8.55894,0.15059 8.55915,0.15058 17.40589,-17.4059 17.40588,-17.40585 61.82167,0.004 61.82166,0.004 10.74436,-10.74435 10.74426,-10.74429 8.51589,0.0327 8.51579,0.0328 11.68904,11.68905 11.68904,11.68904 14.67274,-0.15292 14.67284,-0.15293 5.23145,-0.57651 5.23134,-0.57649 0.96917,-0.96916 0.96916,-0.96916 2.43383,-0.22573 2.43383,-0.22573 2.39628,1.62074 2.39649,1.62066 v 3.23807 3.23807 l -1.52088,1.52081 -1.52077,1.5208 -2.96982,0.35473 -2.96983,0.3547 -1.12719,-1.12714 -1.12708,-1.12713 -5.71491,-0.45613 -5.71481,-0.45619 -16.2588,-0.14423 -16.2588,-0.14415 -11.58192,-11.18977 -11.58182,-11.18976 -2.80905,-0.58337 -2.80894,-0.58325 -2.80925,0.58343 -2.80915,0.5835 -10.31334,9.88233 -10.31333,9.88233 -61.36473,0.28478 -61.36463,0.28471 -17.47577,17.47568 -17.47566,17.47569 -12.30165,-0.0231 -12.30166,-0.0231 -13.63186,-13.63179 -13.63175,-13.63179 -19.80217,0.61664 -19.80207,0.61656 -4.01305,1.44667 -4.01305,1.44668 -1.99332,-1.19351 -1.99352,-1.19356 -1.0366,-2.16417 -1.0366,-2.16425 1.1426,-2.64277 1.14239,-2.64276 z m 553.85423,-520.221997 2.3821,0.11885 1.877,1.773163 1.877,1.773162 0.6439,2.126653 0.6439,2.126754 -1.055,1.762043 -1.0551,1.762247 -3.5846,1.447727 -3.5846,1.447881 -12.90254,12.332646 -12.9025,12.332728 -0.3612,8.786668 -0.3612,8.786586 13.6735,13.673439 13.67324,13.67339 v 52.35753 l -0.01,52.35753 28.3975,28.39744 28.3975,28.39744 -0.072,29.89416 -0.072,29.89416 -13.6488,14.29326 -13.6486,14.29331 -1.2268,3.44244 -1.2268,3.44243 -2.237,1.07302 -2.237,1.07296 -2.6287,-0.73863 -2.6287,-0.73862 -1.1399,-2.37677 -1.14,-2.37671 0.7468,-2.65804 0.747,-2.65797 2.9619,-1.18699 2.9622,-1.18694 14.3954,-13.87567 14.3953,-13.87565 0.011,-25.65794 0.011,-25.65792 -28.7137,-28.71377 -28.7138,-28.71371 0.01,-52.35753 v -52.35753 l -13.24044,-13.24053 -13.24062,-13.24063 -0.022,-12.932559 -0.022,-12.932641 11.97092,-12.025105 11.9709,-12.025166 2.18994,-3.487972 2.19,-3.487971 1.5834,-2.227445 1.5835,-2.227344 z m 56.3159,-0.427146 1.8016,-0.476421 2.1556,0.968042 2.1555,0.96794 0.8752,2.749774 0.8752,2.749774 -0.9832,1.869671 -0.9832,1.869569 -0.5472,11.421428 -0.5472,11.42153 -0.2259,63.195806 -0.2259,63.19584 23.0988,23.09879 23.0989,23.0988 -0.024,11.67075 -0.024,11.67068 -13.2424,13.2423 -13.2422,13.2423 0.011,26.48577 0.011,26.48577 -13.2175,13.29075 -13.2176,13.29075 -6.6292,7.6571 -6.6291,7.65717 v 1.42269 1.42272 l -1.7664,1.76647 -1.7665,1.76647 -2.4915,-2e-5 -2.4914,4e-5 -1.9989,-1.19686 -1.9988,-1.1968 -0.5388,-2.58643 -0.5387,-2.58647 1.2102,-2.02128 1.2102,-2.02121 2.5422,-0.83463 2.5422,-0.83464 19.7628,-19.35192 19.7627,-19.35199 -0.039,-26.52421 -0.039,-26.52416 13.2358,-13.23587 13.236,-13.23585 0.038,-7.2537 0.038,-7.25368 -23.3253,-23.32523 -23.3253,-23.32527 -0.1556,-69.94657 -0.1557,-69.946482 -0.7028,-7.248696 -0.7029,-7.248563 -0.8157,-0.815833 -0.8158,-0.815832 0.1097,-2.197759 0.1095,-2.19786 1.8619,-1.824069 1.862,-1.82407 z m -95.52595,121.194613 3.09708,4e-5 1.20537,1.20536 1.20536,1.20536 0.3547,2.96981 0.35476,2.96987 -0.88433,0.88433 -0.88433,0.88433 -0.68797,8.49223 -0.68803,8.49216 -0.14851,38.65073 -0.14851,38.65074 18.06962,18.06959 18.06944,18.06954 -0.1568,7.73485 -0.1569,7.7348 -0.9358,2.84377 -0.9358,2.84383 -2.6754,3.48177 -2.6753,3.48184 -0.837,3.54544 -0.83684,3.54544 0.76424,3.15313 0.7643,3.15317 5.9946,5.99212 5.9947,5.99212 2.7494,0.86459 2.7495,0.86459 1.796,1.79599 1.7959,1.79595 -0.095,2.66702 -0.094,2.66709 -1.5068,1.50678 -1.5067,1.50677 -3.6883,-2e-5 -3.6882,6e-5 -0.9538,-0.95384 -0.9538,-0.95376 -1.0836,-2.46832 -1.0837,-2.4683 -6.2365,-7.35936 -6.23634,-7.35936 -0.8397,-2.63811 -0.8396,-2.6381 0.201,-6.01964 0.201,-6.01963 0.9467,-2.97431 0.9466,-2.97433 2.2809,-2.28088 2.28084,-2.2809 0.649,-2.10699 0.6491,-2.10694 0.4953,-4.86725 0.4952,-4.86726 -18.00694,-18.007 -18.00701,-18.00701 -0.20462,-37.75795 -0.20468,-37.75801 -0.63344,-11.02715 -0.63346,-11.02714 -1.23135,-1.23136 -1.23136,-1.23136 0.42005,-2.38424 0.42004,-2.38423 1.78095,-1.78094 1.78096,-1.78094 z m -124.00751,124.78747 2.96982,-0.35473 1.57291,1.57285 1.5728,1.57292 0.53191,1.75689 0.53192,1.7569 -1.57545,3.67727 -1.57545,3.67736 -0.15976,7.87282 -0.15956,7.87284 10.16082,10.16091 10.16103,10.16098 -0.0673,16.45128 -0.0673,16.45134 14.79414,14.22646 14.79403,14.22648 3.40095,1.17205 3.40095,1.17198 1.21554,2.41306 1.21543,2.41298 -0.91019,2.63892 -0.9102,2.63884 -3.10918,1.1014 -3.10939,1.10135 -2.14634,-1.28511 -2.14644,-1.28518 -2.06035,-3.69201 -2.06044,-3.69207 -14.60592,-15.21856 -14.60592,-15.21857 0.0184,-15.59889 0.0184,-15.59887 -10.03921,-10.03916 -10.03912,-10.03917 -0.20026,-10.92523 -0.20026,-10.92524 -1.31235,-1.3123 -1.31235,-1.31236 v -3.0971 -3.09701 l 1.52087,-1.52082 1.52078,-1.52079 z m -222.0942,234.93562 1.75541,-0.17823 4.46091,1.21704 4.46091,1.21703 18.43952,0.48692 18.43953,0.48691 26.08745,0.0942 26.08735,0.0943 18.31935,-18.31942 18.31955,-18.31949 7.77709,0.10895 7.77708,0.10889 2.59685,0.52287 2.59695,0.52282 2.23173,2.21913 2.23174,2.21912 2.99788,1.69455 2.99777,1.69467 3.6866,0.31741 3.6865,0.31745 3.70782,-1.39153 3.70782,-1.39149 1.88385,-1.90147 1.88375,-1.90148 0.67556,-2.47885 0.67555,-2.4788 1.98261,-2.02664 1.9825,-2.02665 2.96983,0.35474 2.96982,0.35469 1.37315,1.37317 1.37316,1.37318 0.0908,2.55842 0.0908,2.55842 -1.51863,2.37361 -1.51873,2.37352 -2.53146,0.52728 -2.53136,0.52729 -1.76347,1.75076 -1.76347,1.75083 -3.18722,1.80218 -3.18743,1.80212 -8.54242,0.15587 -8.54221,0.15598 -2.58808,-0.81921 -2.58797,-0.81914 -2.51381,-2.51381 -2.51381,-2.51374 -2.31722,-1.04058 -2.31722,-1.04059 -5.05506,-0.50167 -5.05496,-0.50174 -18.38147,18.38157 -18.38148,18.38151 -35.38919,-0.0682 -35.38908,-0.0681 -13.12412,0.63429 -13.12412,0.63449 -1.05455,1.05452 -1.05465,1.05458 -2.8318,-0.0885 -2.8319,-0.0884 -1.72287,-1.72293 -1.72297,-1.72295 -10e-5,-3.09706 10e-5,-3.09706 1.48527,-1.48529 1.48537,-1.48528 z m 311.61407,-260.75654 2.38414,-0.42003 1.37428,1.39318 1.37417,1.39323 1.61446,3.43266 1.6144,3.43266 10.70266,10.75806 10.70273,10.75811 -0.0738,27.36955 -0.0738,27.36957 -7.25105,7.89011 -7.2511,7.89008 -0.84921,3.15178 -0.84919,3.15178 -3.31024,1.17257 -3.31024,1.17254 -2.05377,-1.22973 -2.05402,-1.22979 -0.83828,-2.24166 -0.83827,-2.24163 0.87929,-2.35102 0.87908,-2.35108 4.1465,-1.95313 4.14651,-1.95307 6.185,-5.43235 6.18499,-5.43235 0.0698,-24.55264 0.0698,-24.55255 -10.23064,-9.51117 -10.23057,-9.51116 -3.70343,-1.79013 -3.70333,-1.79013 -1.11322,-1.0949 -1.11321,-1.09483 v -2.52353 -2.52352 l 2.06769,-2.06772 2.06768,-2.06771 z m -382.06559,419.50474 1.99873,-0.52489 13.70888,-12.78817 13.70888,-12.78809 33.80455,-33.71371 33.80455,-33.71371 21.13431,0.0137 21.13452,0.0137 7.5858,7.54175 7.58601,7.54175 2.13104,0.59865 2.13114,0.59865 4.97977,0.1873 4.97967,0.18726 2.74997,-0.57279 2.74998,-0.57278 9.108,-8.64295 9.10811,-8.64296 34.58906,-0.15236 34.58897,-0.15222 3.42666,-1.84678 3.42676,-1.84678 2.71866,-5.49215 2.71866,-5.4922 1.91558,-0.57997 1.91568,-0.57998 2.37588,0.41854 2.37608,0.41858 1.14994,1.15004 1.15014,1.1501 -10e-5,3.09706 10e-5,3.09706 -2.09931,2.05888 -2.09911,2.05883 -2.15093,0.29833 -2.15093,0.29841 -2.83465,2.83461 -2.83466,2.83468 -4.25626,1.50459 -4.25626,1.50454 -33.23867,0.0301 -33.23866,0.0301 -9.16238,9.16242 -9.16258,9.16249 -12.33185,0.10895 -12.33195,0.10903 -8.24922,-8.24923 -8.24932,-8.24928 -17.97984,0.016 -17.97983,0.016 -42.55591,42.59746 -42.5558,42.59747 -3.48807,4.71338 -3.48807,4.71345 -1.61249,2.36335 -1.61248,2.3634 -2.64837,-7e-5 -2.64837,7e-5 -2.20817,-2.20808 -2.20796,-2.20808 v -2.52353 -2.52353 l 1.43835,-1.40057 1.43844,-1.40055 z m 581.40958,-522.303 1.7351,-0.45755 1.8087,0.54767 1.8089,0.54767 1.6981,3.77736 1.6981,3.77741 22.1332,22.65936 22.1333,22.65937 0.062,10.97831 0.062,10.9783 -31.5636,31.56364 -31.5636,31.56364 0.012,23.32986 0.013,23.32984 -26.7867,26.85106 -26.7867,26.85105 -3.519,4.68254 -3.519,4.68253 -1.91,2.69791 -1.9101,2.69793 -2.719,2e-5 -2.7189,3e-5 -2.0736,-2.46086 -2.0735,-2.46087 0.4479,-3.04502 0.448,-3.04495 4.1591,-1.8112 4.1591,-1.81119 29.2883,-28.75283 29.2883,-28.75288 -0.054,-23.38431 -0.054,-23.38439 31.5702,-31.57024 31.5703,-31.57024 -0.039,-7.39012 -0.039,-7.39013 -21.9624,-21.39473 -21.9623,-21.39474 -3.4848,-1.56226 -3.4849,-1.56227 -0.8674,-1.88897 -0.8675,-1.88906 0.5838,-1.92795 0.5837,-1.92801 1.4799,-1.44204 1.4798,-1.44202 z m -443.60359,464.14867 11.69087,0.11407 3.23069,1.32662 3.23099,1.32663 2.18715,2.18727 2.18735,2.18726 2.30345,1.03439 2.30344,1.03446 7.29689,0.17235 7.29689,0.17242 12.99935,-12.99938 12.99925,-12.99933 32.85742,0.0607 32.85743,0.0606 6.30987,-6.93862 6.30987,-6.9387 1.77378,-3.79898 1.77398,-3.79899 1.50189,-0.77825 1.50201,-0.77826 2.9032,0.34681 2.90331,0.34673 1.20534,1.20536 1.20533,1.20537 v 3.09712 3.09699 l -1.78102,1.78099 -1.78091,1.78091 -2.41057,0.42471 -2.41056,0.42472 -8.48672,7.76388 -8.48672,7.76395 -32.61176,-0.009 -32.61167,-0.009 -12.63607,12.63613 -12.63616,12.63619 -10.36955,-0.04 -10.36955,-0.04 -3.31791,-1.37319 -3.31791,-1.37317 -2.75579,-2.75569 -2.75569,-2.75569 -4.95814,-0.61133 -4.95825,-0.61133 -5.20186,0.4702 -5.20186,0.47026 -24.43059,24.43065 -24.4308,24.43071 -0.15364,7.58245 -0.15384,7.58245 -7.75107,8.59349 -7.75097,8.59337 -2.19031,3.48758 -2.19031,3.48764 -1.59055,2.22039 -1.59045,2.22045 -2.18868,-0.12358 -2.18878,-0.12353 -1.39305,-1.13048 -1.39315,-1.13047 -1.33224,-1.47754 -1.33224,-1.47764 0.5614,-2.69551 0.5615,-2.69557 3.9647,-1.92603 3.9649,-1.92594 5.24848,-4.41411 5.24859,-4.41408 3.51694,-4.44053 3.51705,-4.44065 0.15354,-7.56874 0.15333,-7.5687 25.85414,-25.85411 25.85404,-25.85405 z m 288.03035,-250.08825 10.1818,0.45077 71.38204,71.38215 71.3822,71.38215 0.4507,10.18174 0.4508,10.18174 -71.6528,71.6528 -71.65264,71.65276 -10.1818,-0.45078 -10.18173,-0.45076 -71.38212,-71.38214 -71.38211,-71.38216 -0.45082,-10.18174 -0.45081,-10.18174 71.65276,-71.65275 71.65283,-71.65281 z m -139.06143,153.34881 0.16628,4.56533 67.25613,67.29024 67.25629,67.29032 4.80683,-0.2439 4.8068,-0.24378 67.05344,-67.05344 67.0535,-67.05352 -0.4598,-5.14311 -0.4597,-5.14306 -66.7267,-66.72674 -66.72674,-66.72674 -4.7285,-0.0562 -4.7285,-0.0563 -67.36789,67.36784 -67.36773,67.36781 z m 90.92046,-73.05759 3.52847,-2.78036 5.83549,5.52034 5.8356,5.52035 1.7327,1.08329 1.73271,1.0833 2.80999,-0.89437 2.80997,-0.89437 1.44451,-1.45713 1.44451,-1.45713 0.72362,-8.7396 0.72362,-8.73961 4.76335,-0.91459 4.76335,-0.91458 8.48426,-0.20533 8.48422,-0.20539 5.4905,0.61615 5.4905,0.61616 1.4685,1.46837 1.46824,1.46832 0.7633,7.70302 0.7633,7.703 1.5283,1.52831 1.5282,1.52831 2.7022,0.86011 2.7023,0.86004 1.8317,-1.05769 1.8318,-1.05777 5.517,-5.49937 5.517,-5.49937 2.2154,1.25451 2.2153,1.25451 11.9868,11.98676 11.9868,11.98675 1.2545,2.21535 1.2545,2.21534 -6.2968,6.2968 -6.2968,6.29681 v 2.57388 2.57396 l 1.0146,2.25959 1.0148,2.25965 2.7111,0.58842 2.7111,0.58841 6.6117,0.49937 6.6117,0.49937 0.4802,0.48023 0.4802,0.48024 0.594,5.2139 0.5941,5.21389 0.1663,6.58687 0.1664,6.58695 -0.8194,7.63008 -0.8194,7.63015 -0.5157,0.49801 -0.5157,0.498 -7.6223,0.57928 -7.6221,0.57928 -1.9791,0.70574 -1.9792,0.70575 -1.1948,3.35285 -1.1949,3.35285 1.6607,2.93796 1.6606,2.9379 4.8469,4.85445 4.8469,4.8545 -2.531,3.46236 -2.531,3.46233 -9.1031,9.19258 -9.103,9.19258 -3.507,2.48631 -3.5072,2.48625 -5.5444,-5.41865 -5.5445,-5.41871 -1.9891,-1.12187 -1.989,-1.12185 -3.1835,0.83598 -3.1836,0.83604 -0.909,1.75425 -0.909,1.75424 -0.6193,8.27076 -0.6193,8.27066 -3.48224,1.07497 -3.4824,1.07502 -13.3399,0.0915 -13.34005,0.0915 -3.09346,-1.01862 -3.09347,-1.01862 -0.55208,-1.82331 -0.55208,-1.82331 -0.4938,-6.25185 -0.49385,-6.25192 -1.07812,-1.80059 -1.07818,-1.80067 -2.69336,-1.11565 -2.69336,-1.11565 -1.74053,0.52698 -1.74054,0.52697 -5.99761,5.99767 -5.9977,5.9976 -0.97345,-0.22983 -0.97365,-0.22983 -8.45723,-7.68862 -8.45703,-7.68875 -6.31793,-7.24612 -6.31783,-7.24612 6.29661,-6.29665 6.29661,-6.29664 10e-5,-3.6882 v -3.68826 l -1.78408,-1.78281 -1.78408,-1.78287 -8.41469,-0.84564 -8.4148,-0.84569 -0.45101,-0.45102 -0.45112,-0.45108 -1.07435,-4.79962 -1.07445,-4.79957 0.0612,-7.86015 0.0602,-7.8601 0.97467,-7.04803 0.97467,-7.04789 8.84388,-0.70034 8.84378,-0.70034 1.84488,-1.8449 1.84488,-1.8449 10e-5,-3.68819 v -3.68824 l -6.26478,-6.26478 -6.26478,-6.26479 4.41878,-5.23479 4.41878,-5.23486 7.41676,-7.21856 7.41675,-7.21857 z m -15.52142,27.03082 0.2632,2.5036 5.32929,5.32919 5.32918,5.32918 -3.24007,8.85261 -3.23997,8.85259 -9.1736,0.37507 -9.1736,0.37501 -0.8446,3.01107 -0.8446,3.01101 v 8.25534 8.25522 l 0.83317,2.96665 0.83318,2.96667 9.18553,0.42066 9.18544,0.42074 3.23945,8.85134 3.23967,8.85134 -5.32918,5.32919 -5.32918,5.32918 -0.28331,2.69545 -0.2834,2.69538 7.9192,7.9192 7.91929,7.91928 2.25203,8.8e-4 2.25224,9e-4 6.03315,-5.59511 6.03323,-5.59502 8.71154,3.32644 8.71166,3.32645 0.47587,9.33093 0.47588,9.33093 5.46911,0.6401 5.46906,0.64003 5.99793,-0.32238 5.9979,-0.32244 2.6111,-0.79598 2.6113,-0.79605 0.067,-9.03385 0.068,-9.03375 9.02864,-3.27358 9.0285,-3.27364 5.4667,5.46672 5.4667,5.46665 2.0854,0.32382 2.0855,0.32376 8.8208,-8.31989 8.8208,-8.31995 -1.0481,-2.33387 -1.048,-2.33393 -5.0113,-5.01128 -5.0113,-5.01128 2.9153,-7.92244 2.9154,-7.92242 0.6522,-0.99696 0.6521,-0.99697 9.2025,-0.49957 9.2026,-0.49957 0.021,-13.74993 0.022,-13.74987 -0.6268,-0.62677 -0.6268,-0.62685 -8.8066,-0.0555 -8.8065,-0.0555 -3.2216,-8.76515 -3.2216,-8.76515 5.3665,-6.0137 5.3665,-6.0137 v -2.23686 -2.23685 l -8.2298,-8.2298 -8.2298,-8.22978 -2.1201,0.32915 -2.1201,0.32913 -5.4666,5.46669 -5.4667,5.46669 -9.0286,-3.27359 -9.02864,-3.27359 -0.068,-9.03382 -0.067,-9.03375 -2.6113,-0.79606 -2.6111,-0.79605 -5.7155,-0.30738 -5.71567,-0.30743 -5.74544,0.50898 -5.74552,0.50895 -0.4818,9.44701 -0.48181,9.44703 -8.7591,3.37402 -8.75916,3.37394 -5.0702,-5.0239 -5.07022,-5.0239 -2.37313,-0.78126 -2.37323,-0.78126 -2.62317,1.7596 -2.62327,1.75967 -6.07034,6.51498 -6.07023,6.51504 z m 46.71017,15.51378 3.36052,-1.68654 4.15052,-1.33212 4.15045,-1.33218 h 5.65853 l 5.6585,-1e-5 4.8667,1.81004 4.8668,1.81002 4.3042,2.86457 4.30414,2.86449 3.3424,4.67001 3.3423,4.67 1.8355,5.35778 1.8356,5.35776 -0.2698,7.00442 -0.2698,7.00435 -2.1518,4.72485 -2.152,4.72479 -2.689,3.51158 -2.689,3.51158 -4.49674,2.97325 -4.4968,2.9732 -5.5317,1.70704 -5.5316,1.70704 -5.98233,-0.19971 -5.98238,-0.19977 -5.29817,-1.91659 -5.29826,-1.91664 -5.99338,-5.99338 -5.99338,-5.99338 -2.1583,-6.04682 -2.15823,-6.04677 10e-6,-6.20196 -6e-5,-6.20202 2.16752,-5.9803 2.1675,-5.9803 4.88554,-5.26584 4.88556,-5.26583 z m -8.10884,20.53545 -1.6967,4.23587 0.18022,6.46298 0.18014,6.46292 1.36349,3.53543 1.36356,3.53549 4.68203,4.78851 4.68203,4.7884 5.33274,1.8289 5.33267,1.82886 4.34148,-0.282 4.3414,-0.28199 5.1299,-1.86743 5.1298,-1.8675 4.0742,-4.12722 4.07414,-4.12723 1.9314,-5.20439 1.9313,-5.20445 -0.078,-5.16622 -0.077,-5.16629 -1.5023,-4.4189 -1.5024,-4.4189 -5.06194,-5.03205 -5.062,-5.03203 -3.3837,-1.03264 -3.3835,-1.03263 -3.952,-0.46417 -3.952,-0.46417 -5.49676,1.36487 -5.49676,1.36486 -3.35206,2.21307 -3.35201,2.21315 -2.51262,3.16532 -2.51261,3.16533 z m 226.3615,-347.69049 1.9971,-0.85214 2.2669,0.84775 2.2669,0.84776 1.6067,3.8324 1.6067,3.8324 20.5235,21.11468 20.5235,21.11467 0.074,12.22753 0.075,12.22751 -39.1973,39.19729 -39.1973,39.19729 0.2122,10.40958 0.2122,10.40963 -37.6478,38.06635 -37.6477,38.06642 3e-4,1.57681 4e-4,1.57681 -2.2873,2.28737 -2.2875,2.28739 -2.8318,-0.0885 -2.8319,-0.0884 -1.7229,-1.72292 -1.723,-1.72294 v -3.09711 -3.09702 l 0.8261,-0.80845 0.8268,-0.80782 3.8835,-1.79447 3.8834,-1.79455 36.5342,-36.01717 36.5341,-36.01725 -0.064,-10.76142 -0.064,-10.76147 39.1455,-39.14553 39.1456,-39.14552 -0.034,-8.62215 -0.033,-8.62207 -21.0087,-20.49127 -21.0086,-20.49118 -2.7759,-1.1022 -2.776,-1.10227 -1.1837,-1.97692 -1.1837,-1.97694 0.8829,-2.36108 0.883,-2.36103 0.7987,-0.71917 0.7987,-0.71917 z m -536.93941,587.63493 1.98016,-0.52673 11.83686,-10.89155 11.83717,-10.89155 52.72743,-52.64046 52.72703,-52.64118 27.81308,0.065 27.81307,0.065 10.40536,-11.04461 10.40536,-11.04459 1.77551,-3.79734 1.77561,-3.79735 1.5019,-0.77819 1.502,-0.77826 2.9032,0.34673 2.90331,0.34681 1.20534,1.20536 1.20533,1.20537 -1e-4,3.09706 1e-4,3.09705 -2.11053,2.11062 -2.11064,2.11055 -1.57647,-7.5e-4 -1.57637,-7.6e-4 -12.3143,11.91314 -12.3141,11.91319 -27.80931,0.048 -27.8093,0.048 -61.84645,62.33896 -61.84636,62.33896 -2.73029,4.46671 -2.73018,4.46665 -2.45923,0.12264 -2.45903,0.12264 -2.42566,-2.42575 -2.42577,-2.42574 v -2.52353 -2.52353 l 1.12301,-1.08511 1.1229,-1.08511 z m 131.09784,-65.12336 20.80479,0.0144 31.83899,-31.8945 31.83898,-31.89449 4.07814,-5.38514 4.07815,-5.38509 1.90303,-2.53808 1.90313,-2.53811 2.19868,0.114 2.19898,0.11406 2.00474,1.20429 2.00474,1.20429 0.34809,2.91456 0.34818,2.9146 -1.3606,2.00374 -1.36061,2.00382 -3.24752,1.30251 -3.24741,1.30259 -36.03741,35.43266 -36.0375,35.4328 -20.63851,-0.0143 -20.63861,-0.0142 -32.29541,32.29542 -32.29541,32.29542 0.45214,9.05801 0.45214,9.05795 1.33877,4.60771 1.33867,4.60778 -0.73126,2.62389 -0.73136,2.62397 -2.69234,0.76077 -2.69244,0.76079 -2.19898,-1.05471 -2.19888,-1.0547 -1.26379,-2.11069 -1.26379,-2.1108 1.02956,-2.40549 1.02956,-2.40549 0.86714,-2.28726 0.86715,-2.28727 0.21954,-11.26003 0.21954,-11.25999 33.3821,-33.38205 33.382,-33.38205 z m 487.44477,-461.18181 2.8319,0.0884 1.8997,1.89972 1.8997,1.89978 -0.1305,2.70843 -0.1305,2.70838 -1.2434,2.00954 -1.2435,2.00947 -0.5174,25.15222 -0.5175,25.15222 -31.7228,31.72278 -31.7228,31.72279 -17.619,-0.21372 -17.6191,-0.21371 -35.2539,36.03572 -35.2539,36.03573 -1.9489,3.09813 -1.9489,3.09821 -1.4839,2.34849 -1.4838,2.34857 -2.6406,0.27754 -2.6404,0.27754 -2.3787,-2.37873 -2.3788,-2.3788 -0.1212,-2.42986 -0.1212,-2.42993 2.2274,-1.58344 2.2274,-1.58348 3.4879,-2.18999 3.488,-2.18998 36.6397,-36.58547 36.6397,-36.58547 17.217,0.44777 17.2169,0.44775 30.7205,-30.7205 30.7205,-30.72049 -0.1212,-12.18095 -0.1213,-12.18096 -0.4603,-10.26466 -0.4603,-10.26466 -1.4312,-4.40475 -1.4311,-4.40475 0.6329,-1.42136 0.633,-1.42137 1.4157,-1.41563 1.4156,-1.41564 z M 886.67149,627.15564 h 2.64847 l 2.20806,2.20808 2.20806,2.2081 v 2.64844 2.64845 l -2.38741,1.58837 -2.3874,1.58843 -4.50927,3.25447 -4.50927,3.2544 -39.78868,40.14031 -39.78848,40.14038 -0.50662,3.55073 -0.50662,3.55066 -5.67522,6.67051 -5.67512,6.6705 -38.78799,38.8499 -38.7881,38.8499 0.0388,7.36971 0.0388,7.36965 21.71551,21.2847 21.7155,21.2847 1.57678,-5.7e-4 1.57668,-5e-4 1.94149,1.94153 1.94149,1.94153 0.42011,2.38424 0.42,2.38422 -2.03473,1.99441 -2.03484,1.99442 -1.76949,0.23248 -1.76949,0.2324 -2.11727,-0.6457 -2.11747,-0.64564 -2.69213,-4.5886 -2.69214,-4.58859 -20.22585,-20.22583 -20.22594,-20.22589 0.0245,-11.67068 0.0245,-11.67074 40.00435,-40.09394 40.00435,-40.09394 4.41317,-5.29783 4.41316,-5.29783 0.52111,-3.64738 0.521,-3.64733 40.87282,-41.77289 40.87262,-41.7729 2.78425,-4.1555 2.78406,-4.15556 1.32632,-2.01863 1.32643,-2.01858 z m 212.85541,-185.35585 3.4463,-1.60087 15.2915,-14.57167 15.2917,-14.5716 12.4055,0.0233 12.4054,0.0233 7.2556,-7.27833 7.2557,-7.27835 4.9464,-6.10973 4.9463,-6.10972 1.4283,-3.04641 1.4284,-3.04641 2.6377,-0.7412 2.6378,-0.7412 2.3767,1.13995 2.3768,1.14002 0.7386,2.62864 0.7386,2.62864 -1.0872,2.26669 -1.0872,2.26669 -4.3199,2.21074 -4.3198,2.21075 -12.084,12.08387 -12.0838,12.08386 -12.6411,-0.0471 -12.6412,-0.0472 -15.2473,15.66586 -15.2473,15.66593 -0.836,2.54079 -0.8359,2.54085 -1.896,1.13515 -1.8959,1.13521 -2.3611,-0.88296 -2.3611,-0.88302 -1.147,-1.147 -1.1469,-1.14695 -0.3548,-2.96986 -0.3548,-2.96986 1.4473,-1.30013 1.4473,-1.30014 z m -198.7557,198.90884 2.3821,0.11886 1.87681,1.77334 1.87681,1.77335 0.64394,2.12664 0.64393,2.12664 -1.05506,1.76218 -1.05506,1.76211 -3.61203,1.42037 -3.61213,1.42038 -29.58103,29.09096 -29.58104,29.09093 0.0571,17.70475 0.0571,17.70476 -32.47231,32.52537 -32.47231,32.52536 -0.23974,8.90812 -0.23964,8.90818 19.7832,19.75791 19.78309,19.75783 8.56282,-0.50029 8.56282,-0.50041 4.2125,-1.73909 4.2126,-1.73916 2.56992,1.06455 2.56992,1.06449 1.18197,1.97398 1.18187,1.97401 -0.89429,2.80996 -0.89448,2.81001 -1.1527,1.15275 -1.15269,1.15268 -2.35344,0.41462 -2.35343,0.41461 -3.0746,-1.77007 -3.0746,-1.77007 -11.05225,-0.33386 -11.05224,-0.33379 -21.05168,-21.05165 -21.05168,-21.05164 0.0235,-12.30163 0.0235,-12.30171 32.83569,-32.8357 32.8357,-32.8357 -0.46469,-17.20005 -0.46479,-17.2 27.53069,-27.5723 27.5307,-27.57233 3.75423,-5.07823 3.75414,-5.0782 1.58963,-2.22122 1.58974,-2.22108 z m 211.7337,-184.66903 2.0227,-0.50085 10.7049,-10.24877 10.705,-10.24878 26.9933,0.011 26.9932,0.011 14.5328,-14.53271 14.5327,-14.53271 8.4292,0.0878 8.429,0.0878 2.0799,0.67628 2.0797,0.67623 2.5852,2.58529 2.5852,2.58523 3.048,1.25152 3.048,1.25151 5.529,0.2251 5.529,0.22508 12.9922,-12.99216 12.9921,-12.99215 0.037,-7.06739 0.037,-7.06745 1.8889,-3.02994 1.889,-3.02993 6.5688,-6.59911 6.5688,-6.59909 3.0079,-5.02151 3.0078,-5.02151 1.8339,-1.09805 1.834,-1.09803 2.6425,1.09459 2.6427,1.09461 1.18,2.35397 1.1799,2.35398 -0.716,2.56758 -0.7162,2.56751 -3.4668,1.22803 -3.4669,1.22809 -7.7342,6.99373 -7.7344,6.99374 -1.9681,2.87716 -1.9682,2.87718 -0.1547,7.62875 -0.1547,7.62876 -13.8937,13.8936 -13.8935,13.8936 -11.0073,-0.20172 -11.0073,-0.20173 -3.463,-2.67727 -3.463,-2.67726 -2.221,-1.63452 -2.2211,-1.6345 -5.0354,0.0587 -5.0354,0.0587 -14.8211,14.45669 -14.8211,14.45669 -27.2985,0.0298 -27.2984,0.0298 -8.6883,9.40699 -8.6882,9.40706 -1.7634,3.75772 -1.7633,3.75781 -0.5803,0.58024 -0.5802,0.58025 -3.097,3e-5 -3.0971,-4e-5 -1.7809,-1.78092 -1.781,-1.78098 -0.42,-2.38423 -0.4201,-2.38424 2.0335,-1.99566 2.0335,-1.99566 z m -196.43713,198.047 3.07378,0.36712 1.40703,1.40706 1.40702,1.40705 0.36726,3.07404 0.36716,3.07403 -2.27376,1.64363 -2.27386,1.64364 -3.19794,1.84899 -3.19814,1.84899 -18.31741,18.28719 -18.31751,18.28725 0.0133,22.00415 0.0133,22.00429 -14.3777,14.7562 -14.3775,14.75626 -0.53662,5.42017 -0.5365,5.42015 21.81701,21.81704 21.81691,21.81697 0.0469,29.97964 0.0469,29.97956 -10.19051,10.19046 -10.1903,10.19039 -1.57811,2.36699 -1.578,2.36702 -0.33982,5.33605 -0.33992,5.33607 17.08137,17.08131 17.08137,17.08139 0.17679,24.80356 0.1769,24.80354 1.63942,4.0993 1.63941,4.0994 -0.85439,2.2844 -0.85439,2.2846 -2.60104,1.0774 -2.60113,1.0774 -2.30835,-0.8633 -2.30845,-0.8633 -0.86928,-2.4698 -0.8694,-2.4698 1.4915,-4.8137 1.49169,-4.8137 0.51244,-22.45387 0.51263,-22.45384 -17.10707,-17.1677 -17.10718,-17.16768 0.42898,-9.98062 0.42898,-9.98055 11.66701,-11.68716 11.667,-11.6872 -0.0112,-25.5506 -0.0112,-25.5506 -21.609,-21.60897 -21.6091,-21.60903 -0.22474,-9.85545 -0.22485,-9.85538 14.59113,-14.5911 14.59112,-14.5911 -0.0133,-21.87931 -0.0133,-21.87924 18.95287,-19.73235 18.95308,-19.73228 1.82081,-3.2262 1.8208,-3.22628 1.32184,-1.965 1.32163,-1.96507 z m 211.17363,-183.94141 4.5754,-2.36429 5.0903,-5.01332 5.0903,-5.01329 31.5346,0.009 31.5347,0.009 11.7535,-11.75356 11.7536,-11.75357 9.0258,0.23188 9.0258,0.23194 2.4892,1.65936 2.4891,1.65943 5.2047,5.20477 5.2048,5.20478 2.4203,1.61348 2.4202,1.61356 6.7031,0.30139 6.703,0.30137 48.8786,-49.58583 48.8784,-49.58589 1.8814,-3.16564 1.8814,-3.16569 1.2871,-2.10727 1.2874,-2.10727 h 3.2297 l 3.2297,-10e-6 1.8967,1.89674 1.8968,1.89676 -0.088,2.75158 -0.088,2.7516 -3.2494,2.42858 -3.2493,2.42858 -51.9852,51.13712 -51.9851,51.13718 -10.5674,0.0269 -10.5674,0.0269 -8.8935,-8.32487 -8.8936,-8.32488 -2.8888,-0.89637 -2.8889,-0.89637 -3.2636,0.10913 -3.2636,0.10916 -12.0163,11.62685 -12.0164,11.6268 -31.4605,-0.009 -31.4606,-0.009 -4.207,4.20697 -4.207,4.20698 -2.5674,4.88764 -2.5674,4.88764 -1.8281,0.84084 -1.8282,0.84085 -1.928,-0.58371 -1.928,-0.58377 -1.4782,-1.47828 -1.4784,-1.47835 -0.3964,-2.2505 -0.3965,-2.25054 0.8468,-1.3998 0.8469,-1.3998 z m -198.06634,197.69206 2.19796,0.10965 2.31599,2.31609 2.31621,2.31616 v 2.52352 2.52353 l -0.86929,0.86929 -0.8694,0.8693 -3.47215,1.41343 -3.47237,1.41336 -13.47485,12.82847 -13.47475,12.82842 -0.0122,24.47066 -0.0112,24.47065 26.19039,26.19037 26.19043,26.19043 -0.005,54.25042 -0.005,54.25037 12.63284,12.63284 12.63285,12.63285 -0.0531,11.61813 -0.0533,11.61807 -13.64693,14.11188 -13.64697,14.11182 -0.92805,3.14861 -0.92808,3.14853 -2.55287,0.8953 -2.55289,0.8953 -2.5176,-0.7091 -2.51748,-0.709 -0.95907,-2.72467 -0.95906,-2.72471 1.13851,-2.3737 1.13851,-2.3737 2.88216,-1.17331 2.88221,-1.17325 13.45115,-12.87807 13.45117,-12.87806 0.0388,-7.38423 0.0388,-7.38421 -12.6401,-12.6401 -12.64002,-12.64003 0.005,-55.51226 0.005,-55.51232 -26.18967,-26.18968 -26.18958,-26.18961 0.0112,-27.44323 0.0102,-27.44331 12.63759,-12.63751 12.6376,-12.63758 2.68683,-4.57952 2.68683,-4.57949 1.13321,-1.1332 1.1332,-1.13319 z m 211.86664,-183.31827 3.0971,4e-5 0.8837,0.88373 0.8838,0.88381 8.2419,0.45745 8.242,0.45746 26.7668,0.16818 26.7666,0.16814 12.446,-0.58149 12.4458,-0.58155 1.1688,-1.16885 1.1688,-1.16884 2.9699,0.35476 2.9698,0.35468 1.6976,1.69759 1.6976,1.69764 -0.089,2.83187 -0.089,2.83188 -1.9119,1.91192 -1.912,1.91193 -2.0853,-0.12278 -2.0853,-0.12276 -3.1449,-1.27122 -3.145,-1.27123 -22.4431,-0.5331 -22.4431,-0.53311 -17.8606,0.435 -17.8605,0.43504 -5.7541,0.41688 -5.7541,0.41695 -1.1272,1.12715 -1.1272,1.12716 -2.9698,-0.35477 -2.9698,-0.35468 -1.5208,-1.52082 -1.5208,-1.52079 -1e-4,-3.0971 v -3.09703 l 1.6347,-1.63456 1.6345,-1.63455 z m -196.03022,198.29579 2.74661,0.0923 0.95692,1.56661 0.95686,1.56667 1.55354,3.49351 1.55355,3.4935 2.06406,2.11958 2.06411,2.11964 0.67479,2.08115 0.67486,2.08122 0.12088,6.60053 0.12094,6.60061 -0.79479,2.56643 -0.79478,2.56643 -3.26822,4.09556 -3.26816,4.09562 -0.56331,1.75644 -0.56326,1.7565 -0.23828,4.6971 -0.23829,4.69711 18.06796,18.06796 18.06789,18.06789 -0.01,42.89303 -0.01,42.89304 13.2816,13.22234 13.28154,13.22234 8.5902,7.56869 8.59,7.56875 1.4429,-6e-5 h 1.4428 l 1.6966,1.69656 1.6965,1.69657 0.2734,2.60031 0.2733,2.60025 -2.0907,2.09074 -2.0909,2.0908 -3.3176,-0.24939 -3.3176,-0.24939 -1.3004,-1.96709 -1.3004,-1.96714 -2.1967,-3.48121 -2.1968,-3.48121 -19.53354,-19.58793 -19.5331,-19.58858 0.01,-42.89304 0.01,-42.89303 -18.00511,-18.00511 -18.00517,-18.00518 0.0803,-6.54376 0.0803,-6.54383 0.8177,-4.08994 0.81772,-4.09001 1.95599,-1.96861 1.95605,-1.96867 1.81264,-3.20589 1.81265,-3.20602 10e-6,-4.6554 v -4.6554 l -2.01321,-2.943 -2.01321,-2.94301 -3.98136,-1.89441 -3.9813,-1.89448 -1.23706,-1.23702 -1.23696,-1.23704 0.10957,-2.1978 0.10967,-2.1978 2.29151,-2.29156 2.29156,-2.29155 z m 195.07762,-126.46357 3.0451,-1.19494 4.5144,-3.86322 4.5142,-3.86323 1.7926,-1.18386 1.7925,-1.1838 6.7234,-0.18745 6.7233,-0.1874 1.9604,0.59298 1.9605,0.59293 5.3655,4.49764 5.3657,4.49771 5.5412,0.0519 5.5415,0.0519 19.9049,-19.90491 19.9049,-19.90492 25.9023,0.0477 25.9023,0.0476 43.5917,-44.10087 43.5918,-44.10086 1.9238,-3.82486 1.9238,-3.82494 1.8036,-0.82953 1.8037,-0.82952 2.4612,0.4336 2.4613,0.43362 1.0862,1.08618 1.0863,1.08625 0.2133,3.05233 0.2133,3.05234 -1.8585,1.92672 -1.8586,1.92672 -3.5274,2.15054 -3.5274,2.15056 -44.3585,43.53992 -44.3586,43.53992 -25.0292,-0.0117 -25.0293,-0.0117 -19.9641,19.9641 -19.9642,19.96408 -7.9854,-0.26635 -7.9854,-0.26628 -2.2882,-0.50051 -2.2882,-0.50045 -5.9213,-4.66898 -5.9212,-4.66892 -3.8778,-4e-5 -3.8778,3e-5 -4.5355,4.05035 -4.5356,4.05037 -1.4073,3.42741 -1.4074,3.42742 -1.7798,1.77983 -1.7797,1.77981 -2.3843,-0.42003 -2.3842,-0.42004 -1.7811,-1.78098 -1.7809,-1.78091 v -3.09709 -3.09702 l 0.8691,-0.76556 0.869,-0.76555 z m -68.8069,69.35906 3.186,-0.38053 1.6305,2.28687 1.6306,2.28689 2.19,3.48796 2.1899,3.48796 35.261,35.31595 35.2611,35.31596 0.063,21.51364 0.063,21.51364 29.549,29.54899 29.549,29.54899 0.2574,11.44407 0.2575,11.444 1.3526,2.2464 1.3528,2.24635 0.095,2.74447 0.095,2.74446 -1.8113,1.81132 -1.8114,1.8114 -3.097,-4e-5 -3.097,-2e-5 -1.1501,-1.15007 -1.1501,-1.15006 -0.414,-2.35045 -0.4141,-2.35051 1.4711,-3.8476 1.4711,-3.84766 0.3208,-8.82706 0.3206,-8.82701 -29.7571,-29.75709 -29.757,-29.75706 0.073,-21.50936 0.073,-21.50942 -35.088,-34.30896 -35.0882,-34.30898 -3.8057,-2.50302 -3.8058,-2.50301 -1.9291,-1.25366 -1.9292,-1.25366 0.1137,-2.27833 0.1136,-2.27832 1.4889,-2.23348 1.489,-2.23344 z m -57.0477,56.96306 h 2.5236 l 2.4258,2.4258 2.4258,2.42574 -0.1097,2.19787 -0.1097,2.19774 -1.115,1.11502 -1.115,1.11496 -4.4918,2.46845 -4.4918,2.46846 -4.4741,4.95008 -4.4743,4.95009 0.1362,6.77378 0.1363,6.77366 6.0974,6.80702 6.0975,6.80691 0.8196,3.47224 0.8197,3.47219 -0.2247,5.52103 -0.2248,5.52112 -1.2515,3.0479 -1.2516,3.04791 -1.6177,1.61772 -1.6178,1.61776 -1.2655,3.08236 -1.2657,3.08237 0.8151,3.3616 0.8151,3.36147 2.9194,2.91947 2.9196,2.91947 1.7316,-0.16101 1.7317,-0.16094 2.3485,2.34852 2.3485,2.34853 -0.1096,2.19786 -0.1096,2.19775 -1.6337,1.63366 -1.6336,1.63361 -1.4131,0.62942 -1.4132,0.62938 -2.8727,-0.91434 -2.8727,-0.9144 -1.661,-3.54676 -1.6612,-3.54675 -2.3473,-3.13094 -2.3473,-3.13102 -1.1207,-3.49514 -1.12054,-3.49521 0.12974,-3.45559 0.1298,-3.4556 0.9824,-2.97984 0.9823,-2.97984 2.9245,-4.01223 2.9244,-4.01221 0.367,-3.41907 0.3668,-3.41913 -0.6577,-2.69121 -0.6578,-2.69135 -4.6385,-4.63849 -4.63834,-4.63843 -1.4396,-2.59742 -1.4397,-2.5974 -0.4951,-4.54701 -0.495,-4.54702 0.4945,-5.8134 0.4945,-5.81338 6.01654,-7.03516 6.0164,-7.03509 1.3405,-3.26487 1.3406,-3.26482 0.8692,-0.86929 0.8693,-0.86929 z m 98.0335,-97.31701 2.7843,-1.13593 1.8346,1.09841 1.8346,1.09848 1.4501,3.58223 1.4502,3.58218 18.3261,18.89591 18.3262,18.89589 23.3947,-0.0649 23.3948,-0.0649 14.4984,14.49836 14.4983,14.49836 7.2537,0.0379 7.2537,0.038 23.3652,-23.36516 23.3651,-23.36516 53.6643,0.0449 53.6641,0.0448 25.9298,-26.43347 25.9297,-26.43348 1.5802,-3.54409 1.5803,-3.54408 2.7235,-1.11115 2.7235,-1.11114 1.4779,0.65821 1.4779,0.65823 1.501,1.50103 1.5011,1.50103 -0.094,2.66706 -0.095,2.66707 -1.9629,1.96295 -1.9631,1.96295 -1.5764,-6.6e-4 -1.5766,-6.5e-4 -27.443,27.0666 -27.4428,27.06661 -28.8541,0.16651 -28.8541,0.16648 -24.5204,0.27471 -24.5204,0.27472 -23.2597,23.25974 -23.2598,23.25974 -11.6706,-0.0243 -11.6707,-0.0244 -14.5049,-14.50486 -14.5047,-14.50478 -23.33,0.0127 -23.3298,0.0128 -17.6985,-17.64363 -17.6985,-17.64369 -3.4557,-2.22239 -3.4555,-2.22239 -2.5761,-1.8469 -2.5763,-1.84691 0.1548,-2.17804 0.1548,-2.17799 1.0082,-1.65197 1.008,-1.65202 z m -15.834,14.8563 1.5227,-1.00082 2.1822,-0.13002 2.1824,-0.13003 1.5729,2.23798 1.5728,2.23792 2.5261,3.7827 2.5262,3.78271 28.0434,28.11866 28.0434,28.1186 22.0673,-0.0136 22.0674,-0.0135 30.3088,30.30884 30.3089,30.30889 7.2537,-0.038 7.2537,-0.038 19.14,-19.14004 19.14,-19.14004 13.8558,-0.2731 13.8558,-0.27309 6.484,-0.50937 6.484,-0.50937 1.0648,-1.0647 1.0646,-1.06471 3.0971,-1e-5 3.097,1e-5 2.139,2.139 2.139,2.13898 -0.1345,2.07352 -0.1346,2.07352 -1.008,1.89276 -1.008,1.89274 -2.6255,0.54689 -2.6254,0.54686 -4.0014,-1.60026 -4.0014,-1.60029 -16.8303,-0.19847 -16.8302,-0.19849 -19.2942,19.29406 -19.294,19.29405 -11.0398,0.0256 -11.0398,0.0256 -30.3022,-30.30221 -30.3022,-30.30228 -21.8998,0.0134 -21.8998,0.0135 -30.3758,-29.73893 -30.3759,-29.73901 -4.1773,-2.00785 -4.1773,-2.00785 -0.7634,-2.04127 -0.7634,-2.04128 1.1943,-2.37462 1.1941,-2.37468 z m -10.597,11.64475 2.4862,-0.43798 1.6321,2.31296 1.6323,2.31293 2.5262,3.78271 2.526,3.7827 34.6807,34.75587 34.6807,34.75591 7.531,-0.0395 7.5311,-0.0395 36.3171,36.31703 36.317,36.31703 6.5675,-0.0568 6.5674,-0.0568 2.4421,-1.10984 2.4422,-1.10985 8.5544,-8.55439 8.5543,-8.55438 22.7485,-0.25926 22.7485,-0.25924 4.5069,-1.62472 4.5069,-1.62471 1.8243,0.24766 1.8243,0.24766 1.636,1.59589 1.6361,1.59591 0.091,2.57185 0.091,2.57186 -0.8969,1.73104 -0.8969,1.73103 -2.6255,0.54689 -2.6255,0.54686 -3.9871,-1.59454 -3.9871,-1.59456 -21.2595,-0.20548 -21.2595,-0.20549 -9.857,9.85706 -9.857,9.85703 -11.6707,-0.0244 -11.6708,-0.0243 -35.9681,-35.96814 -35.9683,-35.96823 -7.3401,0.0386 -7.3403,0.0386 -36.4803,-35.66955 -36.4805,-35.66955 -3.5146,-2.16333 -3.5146,-2.16333 -2.0115,-1.3334 -2.0115,-1.3334 v -2.64842 -2.64843 l 2.0676,-2.06772 2.0677,-2.06771 z m -28.3914,28.39008 2.4844,-0.4377 1.9658,2.61176 1.9659,2.61176 2.1842,3.49376 2.1841,3.49374 13.2274,13.28234 13.2276,13.28241 -0.013,23.32984 -0.013,23.32976 19.8789,19.8794 19.879,19.87948 -0.4293,17.3514 -0.4292,17.35133 8.8176,8.3279 8.8177,8.32782 3.2162,0.78476 3.2162,0.78481 1.1725,3.31025 1.1726,3.31023 -1.2298,2.05391 -1.2297,2.05389 -2.2417,0.83832 -2.2417,0.83832 -2.3135,-0.86519 -2.3137,-0.86526 -3.2967,-5.39474 -3.2969,-5.39473 -7.3299,-7.32977 -7.3296,-7.32972 0.2408,-17.42383 0.2409,-17.42382 -19.9552,-19.95517 -19.9552,-19.95519 0.064,-23.39442 0.064,-23.39433 -13.8727,-13.25534 -13.8725,-13.25534 -3.7719,-1.74924 -3.7719,-1.74928 -0.5802,-0.58022 -0.5803,-0.58022 v -3.09711 -3.09703 l 1.781,-1.78095 1.7809,-1.78095 z m -12.8343,13.54896 2.6671,0.0945 0.7503,0.75031 0.7503,0.75031 1.4099,3.47591 1.4099,3.47584 8.6086,9.23554 8.6086,9.23549 -0.01,28.84101 -0.01,28.84096 13.6234,13.62334 13.6233,13.62332 -0.1555,8.36146 -0.1553,8.36152 -0.6802,2.22311 -0.6801,2.2231 -4.061,4.80417 -4.0608,4.80417 -0.62,3.26777 -0.62,3.26772 0.4469,3.00073 0.4469,3.00071 12.09,12.65721 12.0901,12.65712 9.5984,0.0597 9.5985,0.0597 9.7934,9.38753 9.7934,9.38746 1.5761,-8.9e-4 1.5762,-9e-4 2.0573,2.05731 2.0574,2.05736 -0.094,2.66708 -0.094,2.66703 -1.3732,1.37318 -1.3733,1.37318 -2.9032,0.3468 -2.9032,0.34674 -1.5067,-0.78068 -1.5067,-0.7807 -1.3738,-3.34601 -1.3739,-3.34594 -5.7825,-6.53279 -5.7825,-6.53278 -2.8846,-1.97327 -2.8847,-1.97328 -8.8668,-0.13664 -8.8668,-0.13665 -13.8859,-13.8859 -13.8859,-13.88584 0.151,-8.58258 0.1511,-8.58265 1.3023,-3.17195 1.3025,-3.17188 3.206,-3.20602 3.2061,-3.20601 0.8829,-2.77437 0.8831,-2.77436 -0.5484,-4.08358 -0.5486,-4.08358 -13.1462,-13.56761 -13.1465,-13.56768 0.01,-28.9045 0.01,-28.90442 -6.97,-6.97006 -6.9699,-6.96997 -4.5796,-2.68687 -4.5795,-2.68686 -1.1332,-1.13319 -1.1332,-1.1332 0.1096,-2.19779 0.1096,-2.19781 2.2916,-2.29156 2.2915,-2.29154 z m -14.6046,14.36675 h 2.5236 l 1.1846,1.18474 1.1848,1.18467 1.3676,3.3308 1.3677,3.33074 4.865,5.60369 4.8648,5.60375 -0.01,33.2495 -0.01,33.24943 10.5194,10.51939 10.5194,10.51939 0.2973,9.73609 0.2973,9.73603 -8.0842,8.65872 -8.0842,8.65867 -0.7616,2.39268 -0.7618,2.39269 -0.1,5.26244 -0.1,5.26244 24.6399,24.63985 24.6398,24.63985 -0.017,16.08718 -0.017,16.08717 -18.0263,18.02645 -18.0265,18.02637 0.1894,38.60985 0.1895,38.60977 1.3622,3.6848 1.3624,3.6848 0.1403,2.0676 0.1405,2.0676 -2.0003,2.0004 -2.0004,2.0003 -2.6971,-0.1418 -2.6973,-0.1417 -1.2728,-0.6197 -1.2729,-0.6199 -0.871,-1.9018 -0.871,-1.9019 1.0209,-3.1449 1.0209,-3.1449 0.5619,-7.6396 0.5619,-7.6396 0.2027,-34.59801 0.2028,-34.59794 17.9408,-17.9409 17.9409,-17.9409 -0.024,-12.30162 -0.023,-12.3017 -24.6063,-24.60629 -24.6062,-24.60622 0.06,-10.9805 0.06,-10.98051 8.6546,-9.06357 8.6546,-9.06362 0.5471,-4.72342 0.5471,-4.72347 -1.6814,-2.97454 -1.6815,-2.97461 -9.1467,-9.1594 -9.1468,-9.15934 0.068,-28.44754 0.068,-28.44741 -0.5928,-5.51384 -0.5929,-5.51379 -4.0643,-4.06433 -4.0645,-4.06439 -3.2111,-1.31855 -3.2112,-1.31855 -1.4643,-1.46433 -1.4645,-1.4644 0.4201,-2.38424 0.42,-2.38422 2.0677,-2.06772 2.0678,-2.06772 z m 97.3519,-97.2597 1.735,-0.4576 1.8734,0.5672 1.8735,0.56728 1.3286,3.43174 1.3287,3.4318 13.8102,14.41285 13.8102,14.41289 21.9186,0.0134 21.9186,0.0135 17.6743,-17.67427 17.6743,-17.67427 52.9884,0.005 52.9885,0.005 24.5379,-24.53786 24.5378,-24.53788 12.2648,-0.10843 12.2649,-0.10838 16.2883,-16.9006 16.2884,-16.90058 1.4024,-3.48337 1.4024,-3.4833 0.898,-0.89795 0.8979,-0.89796 3.0969,-3e-5 3.0971,-3e-5 1.8763,1.87631 1.8763,1.87624 v 1.98086 1.98092 l -1.1519,1.92387 -1.152,1.92388 -3.3449,1.19206 -3.345,1.19205 -17.8995,17.19955 -17.8994,17.19954 -11.1399,-0.0259 -11.1399,-0.0259 -24.6203,24.62036 -24.6204,24.62036 -52.9885,-0.005 -52.9885,-0.005 -18.3042,18.3043 -18.3044,18.30432 -24.8661,-0.0537 -24.8661,-0.0538 -15.0889,-14.56253 -15.0889,-14.56251 -3.4854,-1.56168 -3.4854,-1.56169 -0.8675,-1.88905 -0.8675,-1.88898 0.5838,-1.92801 0.5838,-1.92796 1.4799,-1.44203 1.4798,-1.44204 z"
       id="path1" /><path
       style="font-size:201.418px;font-family:'GohuFont Nerd Font';-inkscape-font-specification:'GohuFont Nerd Font, Normal';fill:#a5a9ab;stroke-width:2.3556"
       d="m 836.3972,654.38493 v -14.42585 -14.42583 l 126.35673,68.03818 126.35677,-68.03818 v 14.42583 14.42585 l -126.35677,68.03818 z"
       id="text1"
       aria-label="*"
       sodipodi:nodetypes="ccccccccc" /><path
       sodipodi:type="star"
       style="fill:#1f282e;fill-opacity:1"
       id="path5221"
       inkscape:flatsided="true"
       sodipodi:sides="6"
       sodipodi:cx="377.25253"
       sodipodi:cy="1373.7869"
       sodipodi:r1="120.13237"
       sodipodi:r2="104.03768"
       sodipodi:arg1="0.52359878"
       sodipodi:arg2="1.0471976"
       inkscape:rounded="0"
       inkscape:randomized="0"
       d="m 481.29022,1433.8531 -104.03769,60.0661 -104.03768,-60.0662 0,-120.1323 104.03768,-60.0662 104.03769,60.0662 z"
       transform="matrix(0.99626374,-1.7255794,1.7255794,0.99626374,-1786.4213,-179.42784)" /><path
       d="m 2623.4821,414.40464 c -7.8851,19.3251 -12.6382,31.96593 -21.414,50.71833 5.3811,5.70485 11.9852,12.34481 22.6866,19.84798 -11.5315,-4.74482 -19.3666,-9.509 -25.2762,-14.45301 -11.2326,23.43357 -28.8285,56.82156 -64.5378,120.98583 28.0927,-16.20153 49.8247,-26.18915 70.1264,-30.00714 -0.8714,-3.74606 -1.3667,-7.79644 -1.328,-12.02112 l 0.033,-0.89917 c 0.4427,-17.98325 9.7996,-31.81099 20.88,-30.87034 11.0805,0.94066 19.693,16.28453 19.2476,34.26779 a 50.795788,50.795788 0 0 1 -1.1315,9.65841 c 20.0582,3.92311 41.5827,13.88859 69.2687,29.87157 l -14.9954,-27.73849 c -7.3315,-5.67993 -14.9758,-13.07521 -30.5715,-21.08191 10.7208,2.78603 18.3983,5.99811 24.3466,9.59199 -47.3097,-88.0903 -51.1443,-99.79324 -67.3679,-137.87072 z"
       fill="#1793d1"
       fill-rule="evenodd"
       id="path14568"
       style="fill:#0070ab;fill-opacity:1;stroke-width:2.76666" /><path
       id="path6136"
       style="fill:#0c6797;fill-opacity:1;stroke-width:0.663224"
       d="m 849.56393,385.03425 c -15.0903,20.88518 -37.8051,49.1299 -55.2945,76.06032 -18.3465,28.25027 -24.6143,64.93359 -9.0118,94.78721 12.7674,24.42924 36.3328,42.91504 73.265,44.21026 36.9321,-1.29522 60.4975,-19.78102 73.2651,-44.21026 15.6024,-29.85362 9.335,-66.53694 -9.0118,-94.78721 -17.4896,-26.93042 -40.2044,-55.17514 -55.2947,-76.06032 0,10.81603 -0.042,15.67275 -0.042,30.31765 12.7032,19.86007 25.3196,35.15791 37.5523,52.72073 16.8797,24.2343 24.3984,55.97975 10.5998,82.09148 -10.0711,19.05886 -30.72,33.05398 -57.069,33.34748 -26.3495,-0.2935 -46.998,-14.28862 -57.0692,-33.34748 -13.7984,-26.11173 -6.2795,-57.85718 10.5999,-82.09148 12.2323,-17.56282 24.8489,-32.86066 37.5519,-52.72073 0,-14.6449 -0.042,-19.50162 -0.042,-30.31765 z" /><path
       id="path445"
       style="fill:#a5a9ab;fill-opacity:1;stroke-width:0.667129"
       d="m 957.90806,385.09584 136.00184,198.92599 49.6889,15.46794 -136.0017,-198.92598 z m 92.97324,18.4763 a 89.331094,89.331094 0 0 0 -29.933,5.39492 l 18.1775,26.40943 a 58.832316,58.832316 0 0 1 11.7555,-1.30616 58.832316,58.832316 0 0 1 58.8323,58.83329 58.832316,58.832316 0 0 1 -9.3271,31.47898 l 18.3151,26.6086 a 89.331094,89.331094 0 0 0 21.5115,-58.08758 89.331094,89.331094 0 0 0 -89.3318,-89.33148 z m -67.12993,30.44955 a 89.331094,89.331094 0 0 0 -22.20138,58.88193 89.331094,89.331094 0 0 0 89.33131,89.33033 89.331094,89.331094 0 0 0 30.9151,-5.76197 l -18.1173,-26.32143 a 58.832316,58.832316 0 0 1 -12.7978,1.58523 58.832316,58.832316 0 0 1 -58.83199,-58.83215 58.832316,58.832316 0 0 1 9.94909,-32.36942 z" /><path
       d="m 960,693.08704 h -91.88237 v -10.19363 -10.33327 h 40.77454 40.91418 V 662.3665 652.17286 H 939.61272 929.41909 V 641.97923 631.7856 h -10.19365 -10.33327 v -10.33328 -10.19364 0 h 10.33327 10.19365 v 10.19364 10.33328 h 10.19363 10.19363 v 10.19363 10.19363 H 960 970.19363 V 641.97923 631.7856 h 10.19364 10.33328 v -10.33328 -10.19364 h 10.19365 10.1936 v 0 10.19364 10.33328 h -10.1936 -10.19365 v 10.19363 10.19363 h -10.33328 -10.19364 v 10.19364 10.19364 h 40.91417 40.7746 v 10.33327 10.19363 z"
       id="text2"
       style="font-size:192px;font-family:'GohuFont Nerd Font';-inkscape-font-specification:'GohuFont Nerd Font, Normal';white-space:pre;fill:#9f789a;stroke-width:1.48948"
       aria-label="K"
       sodipodi:nodetypes="ccccccccccccccccccccccccccccccccccccccccccccccccccc" /></g></svg>
