<svg xmlns="http://www.w3.org/2000/svg" xmlns:xlink="http://www.w3.org/1999/xlink" viewBox="0 0 66 66" fill="#fff" fill-rule="evenodd" stroke="#000" stroke-linecap="round" stroke-linejoin="round"><use xlink:href="#A" x=".5" y=".5"/><symbol id="A" overflow="visible"><path d="M32.003 0c-2.85 6.985-4.568 11.554-7.74 18.332 1.945 2.062 4.332 4.462 8.2 7.174-4.168-1.715-7-3.437-9.136-5.224-4.06 8.47-10.42 20.538-23.327 43.73 10.154-5.856 18.009-9.466 25.347-10.846-.315-1.354-.494-2.818-.48-4.345l.012-.325c.16-6.5 3.542-11.498 7.547-11.158s7.118 5.886 6.957 12.386a18.36 18.36 0 0 1-.409 3.491c7.25 1.418 15.03 5.02 25.037 10.797l-5.42-10.026c-2.65-2.053-5.413-4.726-11.05-7.62 3.875 1.007 6.65 2.168 8.8 3.467-17.1-31.84-18.486-36.07-24.35-49.833z" stroke="none" fill="#1793d1"/></symbol></svg>